<svg version="1.1" id="Layer_1" xmlns="http://www.w3.org/2000/svg" xmlns:xlink="http://www.w3.org/1999/xlink" x="0px" y="0px"
	 width="100%" viewBox="0 0 1280 668" enable-background="new 0 0 1280 668" xml:space="preserve">
<path fill="#FFFFFF" opacity="1.000000" stroke="none" 
	d="
M846.000000,669.000000 
	C564.036072,669.000000 282.572174,669.000000 1.054137,669.000000 
	C1.054137,446.397980 1.054137,223.795944 1.054137,1.096959 
	C427.547302,1.096959 854.094666,1.096959 1280.821045,1.096959 
	C1280.821045,223.666550 1280.821045,446.333252 1280.821045,669.000000 
	C1136.129150,669.000000 991.314575,669.000000 846.000000,669.000000 
M114.984726,335.220215 
	C115.985649,345.574280 116.905342,355.936951 118.005424,366.280487 
	C119.934219,384.415894 122.056984,402.530884 123.940544,420.670868 
	C125.476013,435.458435 126.680901,450.280273 128.207474,465.068848 
	C132.081329,502.596741 136.091751,540.110535 139.970734,577.637939 
	C141.995697,597.228699 143.824432,616.839722 145.811386,636.434448 
	C146.624237,644.450439 152.035675,649.616394 160.003754,649.148254 
	C171.678162,648.462341 183.314087,647.128601 194.968719,646.096924 
	C210.528107,644.719604 226.089462,643.364258 241.650421,642.004883 
	C256.775116,640.683594 271.903717,639.405762 287.024780,638.044128 
	C319.969727,635.077637 352.910645,632.066162 385.853943,629.080994 
	C400.903107,627.717346 415.949921,626.325378 431.005096,625.031067 
	C447.961334,623.573364 464.931549,622.276794 481.885223,620.790955 
	C502.667328,618.969604 523.434631,616.978333 544.216431,615.153564 
	C553.755005,614.315979 563.323853,613.819641 572.859741,612.955566 
	C586.447815,611.724243 600.011536,610.225281 613.598328,608.978149 
	C622.800415,608.133484 632.034424,607.636963 641.236145,606.788940 
	C663.965271,604.694092 686.678650,602.426147 709.409180,600.346680 
	C723.058411,599.098145 736.733948,598.138367 750.387085,596.929382 
	C764.466675,595.682617 778.528809,594.237976 792.607605,592.981873 
	C801.638672,592.176147 810.695435,591.654602 819.724426,590.828552 
	C836.482544,589.295349 853.222107,587.559753 869.981750,586.044434 
	C885.949524,584.600647 901.941528,583.423096 917.907288,581.958740 
	C934.756775,580.413330 951.580200,578.583252 968.429932,577.041199 
	C978.115662,576.154785 987.842346,575.719177 997.530701,574.857605 
	C1014.630310,573.337036 1031.712402,571.620605 1048.806152,570.033203 
	C1066.896606,568.353271 1085.001709,566.824219 1103.080322,565.027771 
	C1109.510132,564.388794 1114.287964,558.927002 1113.981201,552.496277 
	C1113.541992,543.290344 1112.801758,534.089172 1111.870728,524.918335 
	C1110.039673,506.879181 1107.904785,488.870911 1106.050903,470.833923 
	C1103.938965,450.286377 1102.064087,429.714478 1099.957397,409.166382 
	C1098.415283,394.123840 1096.565308,379.112732 1095.039673,364.068665 
	C1093.790161,351.745361 1092.931396,339.382507 1091.695557,327.057648 
	C1089.554688,305.705475 1087.222900,284.372498 1085.040894,263.024353 
	C1084.253296,255.318039 1083.779907,247.579086 1082.960083,239.876633 
	C1081.729736,228.314377 1080.213013,216.782272 1079.017456,205.216736 
	C1077.761597,193.066803 1076.838501,180.882584 1075.593750,168.731400 
	C1073.823853,151.454193 1071.834229,134.199539 1070.052002,116.923538 
	C1068.900146,105.757912 1068.029663,94.563324 1066.889893,83.396347 
	C1065.689209,71.632957 1063.911133,59.913868 1063.131714,48.126076 
	C1062.297607,35.508678 1056.942871,30.132038 1044.137695,31.185854 
	C1023.041931,32.921932 1001.966858,34.914639 980.890259,36.876057 
	C959.585083,38.858742 938.292664,40.978577 916.987000,42.955345 
	C901.729065,44.370979 886.457336,45.638268 871.193665,46.992535 
	C849.956604,48.876801 828.720520,50.772068 807.485352,52.678154 
	C784.319702,54.757519 761.157043,56.871338 737.990234,58.938087 
	C722.574951,60.313309 707.154663,61.633461 691.736450,62.976254 
	C674.436890,64.482903 657.138306,65.999161 639.837341,67.489349 
	C622.185059,69.009796 604.526550,70.458817 586.878174,72.023224 
	C572.614990,73.287560 558.367493,74.729248 544.104126,75.991829 
	C535.083130,76.790359 526.035583,77.293411 517.018005,78.125282 
	C500.262787,79.670944 483.526825,81.425224 466.771576,82.970726 
	C450.962585,84.428963 435.134949,85.684204 419.323181,87.113197 
	C401.935242,88.684631 384.561188,90.411240 367.170837,91.954651 
	C357.834442,92.783272 348.465759,93.249916 339.130615,94.090706 
	C321.893402,95.643204 304.673920,97.392036 287.439972,98.981995 
	C271.437073,100.458359 255.422165,101.804024 239.417603,103.262581 
	C222.677002,104.788231 205.947556,106.438110 189.203156,107.919762 
	C179.856400,108.746826 170.477859,109.218407 161.133575,110.069031 
	C144.068329,111.622498 127.033600,113.531349 109.955963,114.921219 
	C97.914963,115.901184 92.896439,121.912750 94.258522,133.925537 
	C97.604416,163.434280 100.761566,192.964645 103.920044,222.494293 
	C105.353264,235.894028 106.617203,249.311935 107.944397,262.722931 
	C110.305557,286.581787 112.656418,310.441681 114.984726,335.220215 
z"/>
<path fill="#174B18" opacity="1.000000" stroke="none" 
	d="
M114.998154,334.760681 
	C112.656418,310.441681 110.305557,286.581787 107.944397,262.722931 
	C106.617203,249.311935 105.353264,235.894028 103.920044,222.494293 
	C100.761566,192.964645 97.604416,163.434280 94.258522,133.925537 
	C92.896439,121.912750 97.914963,115.901184 109.955963,114.921219 
	C127.033600,113.531349 144.068329,111.622498 161.133575,110.069031 
	C170.477859,109.218407 179.856400,108.746826 189.203156,107.919762 
	C205.947556,106.438110 222.677002,104.788231 239.417603,103.262581 
	C255.422165,101.804024 271.437073,100.458359 287.439972,98.981995 
	C304.673920,97.392036 321.893402,95.643204 339.130615,94.090706 
	C348.465759,93.249916 357.834442,92.783272 367.170837,91.954651 
	C384.561188,90.411240 401.935242,88.684631 419.323181,87.113197 
	C435.134949,85.684204 450.962585,84.428963 466.771576,82.970726 
	C483.526825,81.425224 500.262787,79.670944 517.018005,78.125282 
	C526.035583,77.293411 535.083130,76.790359 544.104126,75.991829 
	C558.367493,74.729248 572.614990,73.287560 586.878174,72.023224 
	C604.526550,70.458817 622.185059,69.009796 639.837341,67.489349 
	C657.138306,65.999161 674.436890,64.482903 691.736450,62.976254 
	C707.154663,61.633461 722.574951,60.313309 737.990234,58.938087 
	C761.157043,56.871338 784.319702,54.757519 807.485352,52.678154 
	C828.720520,50.772068 849.956604,48.876801 871.193665,46.992535 
	C886.457336,45.638268 901.729065,44.370979 916.987000,42.955345 
	C938.292664,40.978577 959.585083,38.858742 980.890259,36.876057 
	C1001.966858,34.914639 1023.041931,32.921932 1044.137695,31.185854 
	C1056.942871,30.132038 1062.297607,35.508678 1063.131714,48.126076 
	C1063.911133,59.913868 1065.689209,71.632957 1066.889893,83.396347 
	C1068.029663,94.563324 1068.900146,105.757912 1070.052002,116.923538 
	C1071.834229,134.199539 1073.823853,151.454193 1075.593750,168.731400 
	C1076.838501,180.882584 1077.761597,193.066803 1079.017456,205.216736 
	C1080.213013,216.782272 1081.729736,228.314377 1082.960083,239.876633 
	C1083.779907,247.579086 1084.253296,255.318039 1085.040894,263.024353 
	C1087.222900,284.372498 1089.554688,305.705475 1091.695557,327.057648 
	C1092.931396,339.382507 1093.790161,351.745361 1095.039673,364.068665 
	C1096.565308,379.112732 1098.415283,394.123840 1099.957397,409.166382 
	C1102.064087,429.714478 1103.938965,450.286377 1106.050903,470.833923 
	C1107.904785,488.870911 1110.039673,506.879181 1111.870728,524.918335 
	C1112.801758,534.089172 1113.541992,543.290344 1113.981201,552.496277 
	C1114.287964,558.927002 1109.510132,564.388794 1103.080322,565.027771 
	C1085.001709,566.824219 1066.896606,568.353271 1048.806152,570.033203 
	C1031.712402,571.620605 1014.630310,573.337036 997.530701,574.857605 
	C987.842346,575.719177 978.115662,576.154785 968.429932,577.041199 
	C951.580200,578.583252 934.756775,580.413330 917.907288,581.958740 
	C901.941528,583.423096 885.949524,584.600647 869.981750,586.044434 
	C853.222107,587.559753 836.482544,589.295349 819.724426,590.828552 
	C810.695435,591.654602 801.638672,592.176147 792.607605,592.981873 
	C778.528809,594.237976 764.466675,595.682617 750.387085,596.929382 
	C736.733948,598.138367 723.058411,599.098145 709.409180,600.346680 
	C686.678650,602.426147 663.965271,604.694092 641.236145,606.788940 
	C632.034424,607.636963 622.800415,608.133484 613.598328,608.978149 
	C600.011536,610.225281 586.447815,611.724243 572.859741,612.955566 
	C563.323853,613.819641 553.755005,614.315979 544.216431,615.153564 
	C523.434631,616.978333 502.667328,618.969604 481.885223,620.790955 
	C464.931549,622.276794 447.961334,623.573364 431.005096,625.031067 
	C415.949921,626.325378 400.903107,627.717346 385.853943,629.080994 
	C352.910645,632.066162 319.969727,635.077637 287.024780,638.044128 
	C271.903717,639.405762 256.775116,640.683594 241.650421,642.004883 
	C226.089462,643.364258 210.528107,644.719604 194.968719,646.096924 
	C183.314087,647.128601 171.678162,648.462341 160.003754,649.148254 
	C152.035675,649.616394 146.624237,644.450439 145.811386,636.434448 
	C143.824432,616.839722 141.995697,597.228699 139.970734,577.637939 
	C136.091751,540.110535 132.081329,502.596741 128.207474,465.068848 
	C126.680901,450.280273 125.476013,435.458435 123.940544,420.670868 
	C122.056984,402.530884 119.934219,384.415894 118.005424,366.280487 
	C116.905342,355.936951 115.985649,345.574280 114.998154,334.760681 
M521.105835,592.823730 
	C528.514709,592.185425 535.931091,591.622437 543.331055,590.894043 
	C562.666138,588.991089 581.984009,586.908264 601.328247,585.106323 
	C614.523865,583.877197 627.764648,583.135803 640.963196,581.934753 
	C661.541077,580.062073 682.095215,577.931763 702.668884,576.011108 
	C717.816650,574.597046 732.984009,573.393982 748.134338,572.006226 
	C769.240540,570.072876 790.333374,567.992859 811.442444,566.091187 
	C831.050415,564.324646 850.673462,562.724548 870.287476,561.023682 
	C889.394775,559.366821 908.496765,557.648743 927.605286,556.006714 
	C943.715515,554.622314 959.840759,553.406677 975.943115,551.938904 
	C996.537109,550.061646 1017.110413,547.959717 1037.700928,546.043335 
	C1053.009399,544.618530 1068.325562,543.263306 1083.652466,542.057556 
	C1086.254883,541.852905 1087.302734,540.996765 1087.069458,538.469177 
	C1086.719727,534.680786 1086.393677,530.890198 1086.059448,527.100342 
	C1085.012939,515.232666 1084.078369,503.353790 1082.893555,491.499908 
	C1081.366333,476.218781 1079.614014,460.960236 1078.006836,445.686920 
	C1076.695312,433.223663 1075.442017,420.754272 1074.185181,408.285339 
	C1072.442017,390.993439 1070.716309,373.699768 1068.989990,356.406189 
	C1067.955078,346.040588 1066.970947,335.669830 1065.895508,325.308472 
	C1064.633789,313.153229 1063.214233,301.013855 1062.017578,288.852417 
	C1060.850464,276.989349 1060.038086,265.090088 1058.777588,253.237793 
	C1057.378784,240.082596 1055.464111,226.981537 1054.111084,213.822281 
	C1052.537842,198.521240 1051.467285,183.168793 1049.928101,167.863846 
	C1048.092773,149.615082 1045.919434,131.400558 1044.026733,113.157272 
	C1042.253540,96.066185 1040.654175,78.957047 1038.981567,61.855545 
	C1038.639648,58.359844 1037.188232,56.476398 1033.217041,56.938744 
	C1027.960571,57.550716 1022.645142,57.636143 1017.369263,58.106724 
	C1003.215942,59.369129 989.072815,60.745415 974.920410,62.018551 
	C966.346069,62.789890 957.754883,63.376667 949.184204,64.183510 
	C936.329529,65.393616 923.491882,66.784470 910.636169,67.982498 
	C901.924438,68.794342 893.189331,69.352547 884.473267,70.121506 
	C870.304810,71.371483 856.145813,72.728188 841.978149,73.987144 
	C833.412659,74.748283 824.830688,75.329376 816.269653,76.135101 
	C803.279480,77.357674 790.305176,78.748924 777.316284,79.985847 
	C766.976074,80.970543 756.623779,81.829147 746.277283,82.748192 
	C730.317444,84.165825 714.359680,85.608337 698.397461,86.998741 
	C689.653320,87.760406 680.896301,88.376953 672.154724,89.165512 
	C658.494507,90.397743 644.847656,91.779984 631.185059,92.984047 
	C621.955994,93.797379 612.698975,94.297424 603.473328,95.143402 
	C586.675354,96.683746 569.896667,98.433723 553.099854,99.987686 
	C540.893494,101.116943 528.667480,102.032417 516.456543,103.114105 
	C502.286316,104.369347 488.126129,105.737396 473.955566,106.988319 
	C465.055969,107.773941 456.138214,108.356445 447.241302,109.169067 
	C433.912994,110.386429 420.602783,111.804390 407.271606,112.987366 
	C397.533112,113.851547 387.760406,114.336731 378.026154,115.240700 
	C366.035858,116.354172 354.078033,117.815414 342.090210,118.958755 
	C333.187408,119.807854 324.254608,120.337761 315.343170,121.102829 
	C300.680847,122.361618 286.026947,123.718468 271.365631,124.989403 
	C262.627716,125.746864 253.874542,126.334984 245.142258,127.149719 
	C232.147049,128.362183 219.168274,129.750107 206.174911,130.983429 
	C195.514313,131.995331 184.841522,132.877838 174.176208,133.840805 
	C159.003311,135.210770 143.844955,136.769836 128.655121,137.911926 
	C121.255783,138.468277 120.150131,139.762283 121.078163,146.986237 
	C122.635933,159.112015 123.783440,171.291794 125.014297,183.457886 
	C126.147171,194.655518 127.079559,205.873718 128.250397,217.067169 
	C129.747513,231.380035 131.471741,245.669205 132.953278,259.983582 
	C134.111084,271.170013 134.951492,282.389313 136.107208,293.575989 
	C137.651337,308.522461 139.419861,323.445648 140.988022,338.389771 
	C142.439743,352.224304 143.700745,366.078796 145.144287,379.914215 
	C146.688660,394.715942 148.451508,409.495361 149.925201,424.303833 
	C151.120392,436.313690 151.893478,448.365692 153.098404,460.374451 
	C154.599686,475.336761 156.424866,490.266266 157.975143,505.223938 
	C159.439285,519.350464 160.693497,533.498596 162.103027,547.630920 
	C164.039062,567.041931 166.008469,586.449707 168.019836,605.853027 
	C168.641998,611.855042 169.447540,617.837952 170.182480,623.940613 
	C179.048630,623.233521 187.123947,622.631775 195.191025,621.934814 
	C204.153183,621.160522 213.110321,620.325623 222.064987,619.468201 
	C230.303238,618.679321 238.528671,617.751160 246.771820,617.020264 
	C255.680832,616.230286 264.609619,615.664062 273.519379,614.881592 
	C287.678162,613.638184 301.825928,612.269714 315.983032,611.006531 
	C324.551208,610.242126 333.132446,609.624512 341.700226,608.856323 
	C355.697632,607.601196 369.686249,606.248291 383.683594,604.992859 
	C392.430878,604.208313 401.193665,603.594788 409.938263,602.783203 
	C422.958527,601.574829 435.964233,600.209106 448.984985,599.006775 
	C457.557709,598.215149 466.148438,597.620605 474.726898,596.888672 
	C489.880402,595.595703 505.030670,594.265259 521.105835,592.823730 
z"/>
<path fill="#3F8841" opacity="1.000000" stroke="none" 
	d="
M520.644043,592.887085 
	C505.030670,594.265259 489.880402,595.595703 474.726898,596.888672 
	C466.148438,597.620605 457.557709,598.215149 448.984985,599.006775 
	C435.964233,600.209106 422.958527,601.574829 409.938263,602.783203 
	C401.193665,603.594788 392.430878,604.208313 383.683594,604.992859 
	C369.686249,606.248291 355.697632,607.601196 341.700226,608.856323 
	C333.132446,609.624512 324.551208,610.242126 315.983032,611.006531 
	C301.825928,612.269714 287.678162,613.638184 273.519379,614.881592 
	C264.609619,615.664062 255.680832,616.230286 246.771820,617.020264 
	C238.528671,617.751160 230.303238,618.679321 222.064987,619.468201 
	C213.110321,620.325623 204.153183,621.160522 195.191025,621.934814 
	C187.123947,622.631775 179.048630,623.233521 170.182480,623.940613 
	C169.447540,617.837952 168.641998,611.855042 168.019836,605.853027 
	C166.008469,586.449707 164.039062,567.041931 162.103027,547.630920 
	C160.693497,533.498596 159.439285,519.350464 157.975143,505.223938 
	C156.424866,490.266266 154.599686,475.336761 153.098404,460.374451 
	C151.893478,448.365692 151.120392,436.313690 149.925201,424.303833 
	C148.451508,409.495361 146.688660,394.715942 145.144287,379.914215 
	C143.700745,366.078796 142.439743,352.224304 140.988022,338.389771 
	C139.419861,323.445648 137.651337,308.522461 136.107208,293.575989 
	C134.951492,282.389313 134.111084,271.170013 132.953278,259.983582 
	C131.471741,245.669205 129.747513,231.380035 128.250397,217.067169 
	C127.079559,205.873718 126.147171,194.655518 125.014297,183.457886 
	C123.783440,171.291794 122.635933,159.112015 121.078163,146.986237 
	C120.150131,139.762283 121.255783,138.468277 128.655121,137.911926 
	C143.844955,136.769836 159.003311,135.210770 174.176208,133.840805 
	C184.841522,132.877838 195.514313,131.995331 206.174911,130.983429 
	C219.168274,129.750107 232.147049,128.362183 245.142258,127.149719 
	C253.874542,126.334984 262.627716,125.746864 271.365631,124.989403 
	C286.026947,123.718468 300.680847,122.361618 315.343170,121.102829 
	C324.254608,120.337761 333.187408,119.807854 342.090210,118.958755 
	C354.078033,117.815414 366.035858,116.354172 378.026154,115.240700 
	C387.760406,114.336731 397.533112,113.851547 407.271606,112.987366 
	C420.602783,111.804390 433.912994,110.386429 447.241302,109.169067 
	C456.138214,108.356445 465.055969,107.773941 473.955566,106.988319 
	C488.126129,105.737396 502.286316,104.369347 516.456543,103.114105 
	C528.667480,102.032417 540.893494,101.116943 553.099854,99.987686 
	C569.896667,98.433723 586.675354,96.683746 603.473328,95.143402 
	C612.698975,94.297424 621.955994,93.797379 631.185059,92.984047 
	C644.847656,91.779984 658.494507,90.397743 672.154724,89.165512 
	C680.896301,88.376953 689.653320,87.760406 698.397461,86.998741 
	C714.359680,85.608337 730.317444,84.165825 746.277283,82.748192 
	C756.623779,81.829147 766.976074,80.970543 777.316284,79.985847 
	C790.305176,78.748924 803.279480,77.357674 816.269653,76.135101 
	C824.830688,75.329376 833.412659,74.748283 841.978149,73.987144 
	C856.145813,72.728188 870.304810,71.371483 884.473267,70.121506 
	C893.189331,69.352547 901.924438,68.794342 910.636169,67.982498 
	C923.491882,66.784470 936.329529,65.393616 949.184204,64.183510 
	C957.754883,63.376667 966.346069,62.789890 974.920410,62.018551 
	C989.072815,60.745415 1003.215942,59.369129 1017.369263,58.106724 
	C1022.645142,57.636143 1027.960571,57.550716 1033.217041,56.938744 
	C1037.188232,56.476398 1038.639648,58.359844 1038.981567,61.855545 
	C1040.654175,78.957047 1042.253540,96.066185 1044.026733,113.157272 
	C1045.919434,131.400558 1048.092773,149.615082 1049.928101,167.863846 
	C1051.467285,183.168793 1052.537842,198.521240 1054.111084,213.822281 
	C1055.464111,226.981537 1057.378784,240.082596 1058.777588,253.237793 
	C1060.038086,265.090088 1060.850464,276.989349 1062.017578,288.852417 
	C1063.214233,301.013855 1064.633789,313.153229 1065.895508,325.308472 
	C1066.970947,335.669830 1067.955078,346.040588 1068.989990,356.406189 
	C1070.716309,373.699768 1072.442017,390.993439 1074.185181,408.285339 
	C1075.442017,420.754272 1076.695312,433.223663 1078.006836,445.686920 
	C1079.614014,460.960236 1081.366333,476.218781 1082.893555,491.499908 
	C1084.078369,503.353790 1085.012939,515.232666 1086.059448,527.100342 
	C1086.393677,530.890198 1086.719727,534.680786 1087.069458,538.469177 
	C1087.302734,540.996765 1086.254883,541.852905 1083.652466,542.057556 
	C1068.325562,543.263306 1053.009399,544.618530 1037.700928,546.043335 
	C1017.110413,547.959717 996.537109,550.061646 975.943115,551.938904 
	C959.840759,553.406677 943.715515,554.622314 927.605286,556.006714 
	C908.496765,557.648743 889.394775,559.366821 870.287476,561.023682 
	C850.673462,562.724548 831.050415,564.324646 811.442444,566.091187 
	C790.333374,567.992859 769.240540,570.072876 748.134338,572.006226 
	C732.984009,573.393982 717.816650,574.597046 702.668884,576.011108 
	C682.095215,577.931763 661.541077,580.062073 640.963196,581.934753 
	C627.764648,583.135803 614.523865,583.877197 601.328247,585.106323 
	C581.984009,586.908264 562.666138,588.991089 543.331055,590.894043 
	C535.931091,591.622437 528.514709,592.185425 520.644043,592.887085 
M1000.199890,495.922791 
	C1004.058289,492.262939 1007.916687,488.603088 1012.027771,484.703552 
	C1012.382141,484.928925 1013.593567,485.516449 1014.587708,486.360138 
	C1023.852295,494.222870 1034.971558,495.382874 1046.173462,493.816223 
	C1062.595581,491.519440 1072.231812,478.004883 1074.017700,462.961121 
	C1075.236450,452.694916 1071.685913,445.053406 1062.996216,439.135651 
	C1055.765259,434.211151 1049.266235,428.211761 1042.121094,422.427856 
	C1046.542603,417.322418 1050.884521,412.354523 1055.177002,407.344330 
	C1068.430786,391.874268 1064.487915,369.214996 1046.960693,358.857117 
	C1040.236572,354.883392 1033.086548,353.994965 1025.483765,353.736755 
	C1018.934692,353.514313 1013.353516,354.895966 1008.852783,359.671570 
	C1005.955627,362.745728 1003.287842,366.036041 1000.213013,369.580017 
	C999.764404,363.842865 999.470032,358.728455 998.944702,353.637909 
	C997.810608,342.649109 994.353455,332.952850 984.258362,326.754913 
	C977.447876,322.573517 970.005066,322.754669 962.522095,322.973083 
	C950.509766,323.323730 938.971069,324.943115 931.301392,335.961700 
	C929.177979,334.597504 927.348267,333.137939 925.292786,332.146729 
	C910.050659,324.796692 895.063599,327.760254 880.737610,334.461945 
	C874.909546,337.188232 871.482727,343.075287 872.019592,350.167145 
	C872.493408,356.425934 873.261475,362.661987 873.777222,368.918182 
	C874.284424,375.069672 874.637512,381.233917 875.056335,387.364410 
	C868.593384,383.720642 863.010437,379.674500 856.793823,377.259949 
	C844.772949,372.590973 832.276611,371.334442 819.227783,372.689606 
	C807.743103,373.882355 796.614746,375.872833 785.866150,379.949066 
	C775.803955,383.765015 768.025085,390.117065 764.037781,400.460236 
	C763.662048,401.434753 763.136658,402.351593 762.651917,403.354980 
	C746.325928,384.860352 725.561829,380.951599 702.494324,383.988495 
	C702.280945,382.507202 702.133423,381.550842 702.006409,380.591766 
	C699.824524,364.123810 691.993286,355.274261 675.748291,352.568634 
	C664.354431,350.670959 653.213074,352.911224 642.879211,358.130798 
	C637.698547,360.747528 634.327332,365.263397 634.111511,371.141510 
	C633.899597,376.914001 634.598938,382.721771 634.935181,388.511932 
	C635.149414,392.200195 635.430725,395.884583 635.724060,400.188232 
	C617.642639,391.745605 599.715515,392.527313 581.834534,398.093811 
	C563.536926,403.790070 549.297424,414.938660 539.781921,432.220551 
	C538.634644,430.983002 537.908203,430.303955 537.302917,429.530090 
	C531.434021,422.026703 523.917542,416.668365 515.243469,412.961395 
	C500.484741,406.654053 485.112244,405.747467 469.360626,407.891785 
	C445.727448,411.109039 424.439331,418.199585 412.922577,440.259949 
	C376.008545,410.030273 339.597931,412.473206 302.937134,440.799866 
	C303.710602,430.592438 302.355438,420.749329 296.509369,411.812317 
	C292.592255,405.824127 287.164093,402.924011 280.197021,403.012482 
	C275.229523,403.075562 270.261780,403.571045 265.306030,404.008423 
	C253.927582,405.012756 242.548172,406.018433 231.184326,407.172821 
	C216.059326,408.709290 200.958054,410.482880 185.827698,411.961273 
	C179.136627,412.615021 173.250412,414.964844 168.233429,419.323303 
	C153.297531,432.298676 157.984543,459.520172 169.445557,469.780182 
	C174.203140,474.039185 179.834610,475.930176 186.509720,474.429382 
	C190.638535,473.501038 194.999802,473.606567 199.448944,473.231812 
	C199.969986,476.622559 200.620621,479.843597 200.939651,483.097198 
	C203.006317,504.174591 204.779373,525.283447 207.100906,546.332153 
	C208.520691,559.205017 214.852966,569.037231 227.784164,572.966003 
	C241.452286,577.118591 254.743073,574.399170 267.361420,568.637756 
	C273.419708,565.871582 276.399567,560.347717 276.015381,553.567810 
	C275.528076,544.968811 274.801910,536.379944 274.012421,527.802063 
	C272.391785,510.194092 270.669678,492.595459 268.965424,474.995270 
	C268.689606,472.146881 268.290924,469.310364 268.000275,466.894531 
	C276.103943,465.135498 283.282990,463.577148 290.624420,461.983582 
	C285.138672,475.695892 284.689728,490.317566 287.082367,505.005646 
	C290.918243,528.553955 302.580841,546.764282 324.394806,557.707275 
	C336.387543,563.723450 349.201569,564.549622 362.291260,564.070129 
	C375.869049,563.572815 388.696838,560.274902 399.851135,552.535461 
	C407.054932,547.537109 413.333282,541.205078 419.664490,535.780701 
	C420.710052,545.289429 421.649689,555.642517 423.036377,565.935425 
	C424.408966,576.123535 429.519836,583.984558 438.997437,588.490479 
	C451.612610,594.488098 464.285767,592.082092 476.795898,588.132080 
	C487.097168,584.879456 492.291504,576.367798 490.968933,565.801392 
	C490.398987,561.247925 489.851318,556.691650 489.241547,551.711792 
	C514.864197,548.677063 535.309326,537.886414 546.708984,515.097656 
	C553.986633,520.543884 560.582642,526.412659 568.030945,530.851318 
	C581.692261,538.992554 597.028748,539.738159 612.495972,539.001831 
	C624.486145,538.431030 636.213745,536.167786 645.666077,528.565491 
	C651.769531,523.656616 656.660767,521.028076 662.925171,527.407349 
	C663.340149,527.829895 664.148438,527.872437 664.778564,528.076721 
	C675.244568,531.469116 685.739319,530.658081 696.189209,528.107605 
	C709.534485,524.850525 713.704041,520.175781 715.418640,506.647980 
	C722.420288,520.230469 734.131470,525.115845 748.203552,523.796631 
	C761.062500,522.591064 774.927063,522.161316 781.130554,506.544098 
	C798.470764,519.157349 818.088806,518.826111 837.335327,516.563538 
	C856.721313,514.284607 875.400513,508.695160 888.604065,491.957733 
	C896.108215,503.774017 907.246582,507.724121 919.766052,506.612122 
	C931.634277,505.557922 944.304626,504.987183 951.501953,493.116333 
	C954.866577,494.931793 957.667480,496.725891 960.682678,498.020966 
	C973.882385,503.690521 986.720642,500.327789 1000.199890,495.922791 
M908.351257,258.870850 
	C926.065857,249.994919 943.782593,241.123428 961.493896,232.240921 
	C969.091553,228.430573 975.187622,223.083008 979.637817,215.695465 
	C990.970825,196.882263 983.749573,170.890198 964.359680,160.628647 
	C949.660034,152.849243 935.582642,155.133453 921.456299,162.219543 
	C868.461121,188.803146 815.413086,215.281219 762.390564,241.810333 
	C749.927246,248.046173 736.985718,253.514053 725.163208,260.795105 
	C710.777527,269.654724 705.000610,283.488831 706.947205,300.438293 
	C709.540100,323.013763 735.581909,341.741272 757.834656,332.131683 
	C769.557739,327.069183 781.231201,321.851562 792.684204,316.210968 
	C831.067139,297.307312 869.340637,278.181580 908.351257,258.870850 
M297.505859,293.991302 
	C288.019379,305.524841 278.521790,317.049286 269.049072,328.594116 
	C255.455566,345.161133 241.857208,361.724274 228.313629,378.332062 
	C225.060028,382.321808 225.245468,386.294067 228.542252,388.926453 
	C231.509171,391.295502 235.387512,390.688202 238.581528,387.038788 
	C242.731506,382.297089 246.737793,377.427124 250.730042,372.550232 
	C280.180237,336.573883 309.607513,300.578857 339.053070,264.598694 
	C343.313232,259.393158 347.632538,254.236023 351.960052,249.013535 
	C360.209808,255.502121 367.852509,261.624878 375.621979,267.582275 
	C380.276764,271.151398 383.308929,270.756531 387.282593,266.386322 
	C390.185730,263.193512 393.027527,259.944183 395.861572,256.689453 
	C411.244659,239.022873 426.599609,221.331726 442.003296,203.683105 
	C446.619476,198.394135 451.361084,193.214615 456.990082,186.930084 
	C456.990082,190.901047 456.930756,193.346542 457.002350,195.788208 
	C457.155029,200.996948 460.040070,204.216522 464.282593,204.007874 
	C468.229004,203.813812 471.160553,200.343933 470.871918,195.594040 
	C470.470764,188.992142 469.931854,182.384186 469.074371,175.828217 
	C468.074799,168.185608 464.496033,165.668228 456.811310,167.308640 
	C447.577911,169.279648 438.407501,171.562042 429.253540,173.882095 
	C424.492340,175.088776 422.312347,178.160660 423.096100,181.880707 
	C423.894867,185.672272 427.225433,187.553040 432.095032,186.886734 
	C434.215881,186.596558 436.318817,186.175476 438.429871,185.813858 
	C438.571564,186.149597 438.713226,186.485321 438.854919,186.821060 
	C419.369995,209.168289 399.885071,231.515503 380.296265,253.981888 
	C378.819611,252.847412 377.766876,252.058487 376.735260,251.242813 
	C370.091431,245.989792 363.504059,240.663589 356.793457,235.497391 
	C352.248871,231.998703 348.292389,231.971664 345.283234,235.629456 
	C329.462189,254.860794 313.752411,274.183624 297.505859,293.991302 
M374.256226,359.746307 
	C365.593384,370.059326 356.852417,380.308167 348.304077,390.715210 
	C344.600800,395.223724 344.780914,399.368073 348.266968,401.956818 
	C351.586823,404.422089 355.472321,403.345490 358.922333,399.061310 
	C361.003082,396.477448 363.131195,393.931183 365.263641,391.389557 
	C385.551849,367.208282 405.846130,343.032074 426.137512,318.853455 
	C433.493378,310.088379 440.846130,301.320618 448.389771,292.328247 
	C455.368469,296.612701 461.935333,300.774536 468.633575,304.712921 
	C473.472107,307.557831 476.839233,306.871338 480.396362,302.523895 
	C498.598145,280.277954 516.755249,257.995483 534.949463,235.743362 
	C540.679993,228.734787 546.477295,221.780792 552.561157,214.418076 
	C553.316040,217.285553 553.785767,219.377533 554.419983,221.418427 
	C556.064392,226.710403 559.265930,228.999969 563.314270,227.877457 
	C567.309387,226.769699 568.800598,223.058105 567.487488,217.676712 
	C565.917969,211.244797 564.354370,204.810699 562.879944,198.356598 
	C561.974915,194.395248 559.366394,191.756683 555.574585,192.253113 
	C545.630188,193.555130 535.749573,195.410156 525.898865,197.329117 
	C521.804688,198.126694 519.423767,202.094376 520.401367,205.426590 
	C521.583679,209.456589 524.804993,211.200180 529.207458,210.382812 
	C532.250061,209.817932 535.334045,209.475815 539.424011,208.886551 
	C516.586487,236.848022 494.531311,263.851624 472.306305,291.063141 
	C468.873566,288.965698 465.505249,286.915771 462.145264,284.852264 
	C458.756836,282.771301 455.413696,280.613647 451.983856,278.603729 
	C447.291199,275.853821 443.905579,276.454590 440.628204,280.372528 
	C418.651672,306.644440 396.663055,332.906250 374.256226,359.746307 
z"/>
<path fill="#184C19" opacity="1.000000" stroke="none" 
	d="
M999.848877,496.066345 
	C986.720642,500.327789 973.882385,503.690521 960.682678,498.020966 
	C957.667480,496.725891 954.866577,494.931793 951.501953,493.116333 
	C944.304626,504.987183 931.634277,505.557922 919.766052,506.612122 
	C907.246582,507.724121 896.108215,503.774017 888.604065,491.957733 
	C875.400513,508.695160 856.721313,514.284607 837.335327,516.563538 
	C818.088806,518.826111 798.470764,519.157349 781.130554,506.544098 
	C774.927063,522.161316 761.062500,522.591064 748.203552,523.796631 
	C734.131470,525.115845 722.420288,520.230469 715.418640,506.647980 
	C713.704041,520.175781 709.534485,524.850525 696.189209,528.107605 
	C685.739319,530.658081 675.244568,531.469116 664.778564,528.076721 
	C664.148438,527.872437 663.340149,527.829895 662.925171,527.407349 
	C656.660767,521.028076 651.769531,523.656616 645.666077,528.565491 
	C636.213745,536.167786 624.486145,538.431030 612.495972,539.001831 
	C597.028748,539.738159 581.692261,538.992554 568.030945,530.851318 
	C560.582642,526.412659 553.986633,520.543884 546.708984,515.097656 
	C535.309326,537.886414 514.864197,548.677063 489.241547,551.711792 
	C489.851318,556.691650 490.398987,561.247925 490.968933,565.801392 
	C492.291504,576.367798 487.097168,584.879456 476.795898,588.132080 
	C464.285767,592.082092 451.612610,594.488098 438.997437,588.490479 
	C429.519836,583.984558 424.408966,576.123535 423.036377,565.935425 
	C421.649689,555.642517 420.710052,545.289429 419.664490,535.780701 
	C413.333282,541.205078 407.054932,547.537109 399.851135,552.535461 
	C388.696838,560.274902 375.869049,563.572815 362.291260,564.070129 
	C349.201569,564.549622 336.387543,563.723450 324.394806,557.707275 
	C302.580841,546.764282 290.918243,528.553955 287.082367,505.005646 
	C284.689728,490.317566 285.138672,475.695892 290.624420,461.983582 
	C283.282990,463.577148 276.103943,465.135498 268.000275,466.894531 
	C268.290924,469.310364 268.689606,472.146881 268.965424,474.995270 
	C270.669678,492.595459 272.391785,510.194092 274.012421,527.802063 
	C274.801910,536.379944 275.528076,544.968811 276.015381,553.567810 
	C276.399567,560.347717 273.419708,565.871582 267.361420,568.637756 
	C254.743073,574.399170 241.452286,577.118591 227.784164,572.966003 
	C214.852966,569.037231 208.520691,559.205017 207.100906,546.332153 
	C204.779373,525.283447 203.006317,504.174591 200.939651,483.097198 
	C200.620621,479.843597 199.969986,476.622559 199.448944,473.231812 
	C194.999802,473.606567 190.638535,473.501038 186.509720,474.429382 
	C179.834610,475.930176 174.203140,474.039185 169.445557,469.780182 
	C157.984543,459.520172 153.297531,432.298676 168.233429,419.323303 
	C173.250412,414.964844 179.136627,412.615021 185.827698,411.961273 
	C200.958054,410.482880 216.059326,408.709290 231.184326,407.172821 
	C242.548172,406.018433 253.927582,405.012756 265.306030,404.008423 
	C270.261780,403.571045 275.229523,403.075562 280.197021,403.012482 
	C287.164093,402.924011 292.592255,405.824127 296.509369,411.812317 
	C302.355438,420.749329 303.710602,430.592438 302.937134,440.799866 
	C339.597931,412.473206 376.008545,410.030273 412.922577,440.259949 
	C424.439331,418.199585 445.727448,411.109039 469.360626,407.891785 
	C485.112244,405.747467 500.484741,406.654053 515.243469,412.961395 
	C523.917542,416.668365 531.434021,422.026703 537.302917,429.530090 
	C537.908203,430.303955 538.634644,430.983002 539.781921,432.220551 
	C549.297424,414.938660 563.536926,403.790070 581.834534,398.093811 
	C599.715515,392.527313 617.642639,391.745605 635.724060,400.188232 
	C635.430725,395.884583 635.149414,392.200195 634.935181,388.511932 
	C634.598938,382.721771 633.899597,376.914001 634.111511,371.141510 
	C634.327332,365.263397 637.698547,360.747528 642.879211,358.130798 
	C653.213074,352.911224 664.354431,350.670959 675.748291,352.568634 
	C691.993286,355.274261 699.824524,364.123810 702.006409,380.591766 
	C702.133423,381.550842 702.280945,382.507202 702.494324,383.988495 
	C725.561829,380.951599 746.325928,384.860352 762.651917,403.354980 
	C763.136658,402.351593 763.662048,401.434753 764.037781,400.460236 
	C768.025085,390.117065 775.803955,383.765015 785.866150,379.949066 
	C796.614746,375.872833 807.743103,373.882355 819.227783,372.689606 
	C832.276611,371.334442 844.772949,372.590973 856.793823,377.259949 
	C863.010437,379.674500 868.593384,383.720642 875.056335,387.364410 
	C874.637512,381.233917 874.284424,375.069672 873.777222,368.918182 
	C873.261475,362.661987 872.493408,356.425934 872.019592,350.167145 
	C871.482727,343.075287 874.909546,337.188232 880.737610,334.461945 
	C895.063599,327.760254 910.050659,324.796692 925.292786,332.146729 
	C927.348267,333.137939 929.177979,334.597504 931.301392,335.961700 
	C938.971069,324.943115 950.509766,323.323730 962.522095,322.973083 
	C970.005066,322.754669 977.447876,322.573517 984.258362,326.754913 
	C994.353455,332.952850 997.810608,342.649109 998.944702,353.637909 
	C999.470032,358.728455 999.764404,363.842865 1000.213013,369.580017 
	C1003.287842,366.036041 1005.955627,362.745728 1008.852783,359.671570 
	C1013.353516,354.895966 1018.934692,353.514313 1025.483765,353.736755 
	C1033.086548,353.994965 1040.236572,354.883392 1046.960693,358.857117 
	C1064.487915,369.214996 1068.430786,391.874268 1055.177002,407.344330 
	C1050.884521,412.354523 1046.542603,417.322418 1042.121094,422.427856 
	C1049.266235,428.211761 1055.765259,434.211151 1062.996216,439.135651 
	C1071.685913,445.053406 1075.236450,452.694916 1074.017700,462.961121 
	C1072.231812,478.004883 1062.595581,491.519440 1046.173462,493.816223 
	C1034.971558,495.382874 1023.852295,494.222870 1014.587708,486.360138 
	C1013.593567,485.516449 1012.382141,484.928925 1012.027771,484.703552 
	C1007.916687,488.603088 1004.058289,492.262939 999.848877,496.066345 
M431.996674,479.545776 
	C434.672760,506.667084 437.258820,533.797791 440.096954,560.902100 
	C440.702606,566.686218 442.681549,572.010193 449.521637,573.393677 
	C457.112671,574.929077 464.387787,573.418457 471.480682,570.896301 
	C472.305817,570.602905 472.987946,568.521606 472.911469,567.321777 
	C472.605682,562.526428 471.936279,557.755432 471.472107,552.968628 
	C470.806335,546.102234 470.202301,539.229858 469.634918,533.046326 
	C477.734528,533.046326 485.287689,533.928223 492.561523,532.877197 
	C512.531372,529.991516 526.948425,519.431519 533.545044,499.823639 
	C537.115295,489.211334 536.726868,478.199066 534.907471,467.305756 
	C531.689941,448.040710 522.157104,433.533966 502.758728,427.413300 
	C490.312347,423.486145 477.500977,424.048340 464.839539,426.498047 
	C454.351257,428.527252 444.451996,432.207794 435.973236,439.008698 
	C431.234589,442.809631 428.760590,447.720581 429.314850,453.824738 
	C430.066681,462.105438 431.055847,470.364563 431.996674,479.545776 
M731.111755,496.993439 
	C732.467590,501.731689 735.470459,504.976562 740.371460,505.635620 
	C748.210632,506.689850 755.810791,505.456512 762.913757,502.504883 
	C762.913757,499.719513 763.117310,497.372864 762.881531,495.071198 
	C760.971619,476.427368 758.783325,457.810059 757.060364,439.149536 
	C754.764282,414.280609 740.373047,400.974457 715.485779,401.055542 
	C705.511414,401.088043 696.208374,403.684296 686.968140,408.558105 
	C685.959351,399.204498 685.041809,390.462830 684.066956,381.727539 
	C683.234619,374.269623 679.620728,370.164795 672.256592,370.235016 
	C665.259277,370.301788 658.275085,371.751038 651.352173,372.584320 
	C651.698303,377.501221 651.851929,381.134308 652.225098,384.744659 
	C654.414368,405.924561 656.702026,427.094360 658.863831,448.277039 
	C660.650330,465.783051 662.247681,483.308441 664.053772,500.812378 
	C664.768005,507.734985 668.054565,511.425171 674.972473,512.155151 
	C679.501221,512.633057 684.274902,512.369812 688.745483,511.473755 
	C696.831970,509.852844 696.771545,509.551575 696.034485,501.147736 
	C696.019958,500.981995 696.030579,500.813965 696.014160,500.648529 
	C694.078613,481.158600 692.225403,461.659973 690.167908,442.182922 
	C689.202820,433.047180 689.634338,432.059387 698.431763,428.852814 
	C700.117798,428.238251 701.812378,427.495148 703.565369,427.241119 
	C714.723633,425.624176 723.989258,429.686432 725.142761,441.828033 
	C725.674988,447.430359 726.327881,453.021301 726.935608,458.616394 
	C728.295410,471.136749 729.661316,483.656433 731.111755,496.993439 
M1034.927124,403.419312 
	C1037.625977,400.042786 1040.613403,396.853424 1042.955444,393.245209 
	C1046.352173,388.011841 1045.597778,381.428864 1041.631104,377.110229 
	C1037.635376,372.759949 1026.385620,369.627136 1022.280823,371.854767 
	C1021.322571,372.374725 1020.634094,373.443970 1019.908447,374.331604 
	C1015.592590,379.610718 1011.305664,384.913513 1007.002563,390.203033 
	C1000.543579,398.142700 994.079285,406.078003 987.289856,414.417206 
	C986.775696,412.195007 986.269836,410.753845 986.126831,409.277527 
	C984.350220,390.936005 982.579773,372.593658 980.907654,354.242401 
	C980.002502,344.308655 975.582703,339.731476 965.970825,340.227142 
	C959.965210,340.536774 954.018127,341.979401 947.687805,342.969452 
	C949.246155,359.462189 950.651184,374.988251 952.194519,390.500549 
	C954.082581,409.477722 956.083862,428.443573 958.041748,447.413788 
	C958.861755,455.359192 959.422119,463.343933 960.598450,471.236572 
	C961.844543,479.596741 965.639038,483.045929 974.088196,482.826965 
	C980.425110,482.662689 986.727661,481.174225 993.412720,480.223083 
	C992.002991,465.899170 990.692566,452.583771 989.299988,438.434052 
	C991.005127,439.888336 992.146301,440.768707 993.181885,441.759399 
	C1001.969421,450.165466 1010.666687,458.667633 1019.552246,466.968384 
	C1022.447876,469.673462 1025.609253,472.229370 1029.019043,474.219940 
	C1035.511230,478.010101 1042.301147,477.989258 1048.803345,474.089386 
	C1053.990723,470.977997 1055.414673,465.787903 1056.264771,460.150665 
	C1056.980835,455.400665 1053.036499,454.427338 1050.647461,452.236176 
	C1048.202637,449.993866 1045.433838,448.106628 1042.824463,446.041626 
	C1033.741455,438.853760 1024.666016,431.656189 1015.315613,424.246704 
	C1021.924927,417.220001 1028.178589,410.571320 1034.927124,403.419312 
M325.270721,446.690796 
	C321.934814,449.680206 318.208710,452.337738 315.333069,455.718597 
	C304.957703,467.916870 302.407990,482.426849 304.128448,497.846924 
	C306.393860,518.151184 315.184082,534.285950 334.816101,542.663269 
	C344.637512,546.854309 355.063843,547.276794 365.596100,546.036255 
	C386.003357,543.632507 404.026154,532.519348 410.356262,511.444977 
	C415.288849,495.023285 413.740906,478.950195 406.041016,463.656250 
	C399.481140,450.626648 388.907257,442.260376 374.708344,438.819641 
	C357.461975,434.640503 341.134766,437.122284 325.270721,446.690796 
M808.552002,391.973816 
	C801.708557,394.267639 794.529358,395.875580 788.103333,399.021942 
	C779.275696,403.344147 777.701660,412.493042 783.431091,420.458923 
	C785.634949,423.522949 787.723450,424.569458 791.695007,422.530304 
	C803.096680,416.676178 815.231750,413.478180 828.224243,415.042938 
	C836.505920,416.040314 840.043274,420.201691 839.928406,428.857361 
	C838.248779,429.245453 836.494446,429.629242 834.750916,430.057037 
	C822.851929,432.976776 810.795288,435.388733 799.111267,439.004425 
	C790.625854,441.630341 783.810852,447.224487 781.090454,456.235718 
	C776.803345,470.436798 780.851257,489.521698 799.360291,496.201233 
	C811.685608,500.649200 824.158020,500.473114 836.747803,498.643036 
	C847.275635,497.112701 857.393921,494.165436 866.494385,488.329468 
	C873.742188,483.681610 877.100769,477.528809 875.986084,468.632660 
	C874.007629,452.842743 872.805359,436.956055 870.862244,421.161041 
	C869.420593,409.442596 863.900513,400.146790 852.742981,395.024750 
	C838.705750,388.580719 824.139771,389.003632 808.552002,391.973816 
M194.201080,455.793701 
	C201.263168,455.043396 208.325256,454.293121 215.700241,453.509583 
	C217.523682,471.558044 219.281509,489.022980 221.054703,506.486389 
	C222.364883,519.389771 223.560028,532.306946 225.069870,545.187073 
	C225.901215,552.279053 229.839188,556.646667 236.660522,556.640808 
	C243.972229,556.634521 251.282639,555.119446 258.788757,554.239990 
	C255.238205,518.735779 251.824875,484.603729 248.398758,450.343872 
	C258.260010,449.214111 267.492950,448.246368 276.698212,447.063660 
	C281.299438,446.472443 284.697449,443.630463 284.892426,439.083557 
	C285.092804,434.412079 284.094635,429.626556 283.140900,424.989685 
	C282.474274,421.748718 280.399811,420.316925 276.572876,420.762634 
	C260.101288,422.681091 243.588669,424.248779 227.088898,425.923676 
	C213.570755,427.295898 200.044861,428.593475 186.532196,430.017120 
	C181.005173,430.599396 177.294495,433.938232 177.072174,439.138611 
	C176.911682,442.892792 177.245132,446.844208 178.292282,450.435333 
	C180.176575,456.897308 181.000534,457.098541 187.810852,456.195038 
	C189.621048,455.954926 191.464371,455.964478 194.201080,455.793701 
M636.511780,488.887817 
	C634.760742,489.223419 632.768494,489.133545 631.299561,489.966522 
	C624.037964,494.084381 616.237915,496.533325 608.001465,495.620483 
	C588.954590,493.509552 583.987305,481.243439 583.078308,468.030975 
	C582.089600,453.661652 588.364990,443.442810 600.077576,439.010864 
	C608.715942,435.742126 617.472778,436.133057 625.954895,439.263458 
	C629.754700,440.665771 631.391663,439.426300 632.981323,436.390228 
	C637.513306,427.734436 634.277161,419.417358 624.432800,415.026642 
	C615.232178,410.923126 605.610962,411.317657 596.037903,413.068115 
	C578.676453,416.242645 563.758423,424.023071 556.243347,440.598206 
	C546.264404,462.607697 548.489990,484.462952 562.940796,503.930115 
	C573.435242,518.067444 589.300720,521.718323 606.094910,521.403442 
	C616.624695,521.205933 627.084106,520.013794 636.137146,513.806213 
	C645.870728,507.131958 646.237244,496.914612 636.511780,488.887817 
M930.328308,486.894928 
	C934.096252,486.352417 935.495544,484.347046 935.004761,480.458099 
	C934.069885,473.049164 933.508423,465.593628 932.761414,458.160492 
	C929.504944,425.755432 926.213196,393.353882 922.989258,360.945587 
	C922.045105,351.454559 919.009521,346.533661 911.835815,346.358795 
	C904.569519,346.181641 897.262329,347.680298 889.640381,348.479828 
	C890.574219,359.020966 891.290710,368.107574 892.198486,377.175018 
	C895.442993,409.580902 898.776367,441.977936 902.023621,474.383575 
	C903.095093,485.075775 907.955566,489.464386 918.690552,488.773041 
	C922.314270,488.539642 925.893188,487.608490 930.328308,486.894928 
M602.137573,472.949127 
	C604.689941,477.635742 608.878357,478.792877 613.593567,477.535950 
	C617.224182,476.568115 620.547424,474.489136 624.152283,473.372070 
	C628.500183,472.024750 632.970093,470.997620 637.452576,470.198212 
	C639.046448,469.913940 640.831665,470.702667 642.887573,471.064606 
	C642.623840,467.954224 642.410217,465.537048 642.216125,463.118317 
	C642.010132,460.549927 641.822632,457.980072 641.598633,455.036987 
	C638.748901,456.088715 636.503723,457.251465 634.123596,457.702454 
	C631.707581,458.160309 629.100403,458.278809 626.681641,457.891571 
	C623.267456,457.345032 619.972290,456.097687 616.586487,455.324005 
	C605.077148,452.694031 598.686096,459.325775 601.719543,470.679962 
	C601.847839,471.160095 601.914917,471.656555 602.137573,472.949127 
z"/>
<path fill="#1A4D1B" opacity="1.000000" stroke="none" 
	d="
M908.003662,259.005859 
	C869.340637,278.181580 831.067139,297.307312 792.684204,316.210968 
	C781.231201,321.851562 769.557739,327.069183 757.834656,332.131683 
	C735.581909,341.741272 709.540100,323.013763 706.947205,300.438293 
	C705.000610,283.488831 710.777527,269.654724 725.163208,260.795105 
	C736.985718,253.514053 749.927246,248.046173 762.390564,241.810333 
	C815.413086,215.281219 868.461121,188.803146 921.456299,162.219543 
	C935.582642,155.133453 949.660034,152.849243 964.359680,160.628647 
	C983.749573,170.890198 990.970825,196.882263 979.637817,215.695465 
	C975.187622,223.083008 969.091553,228.430573 961.493896,232.240921 
	C943.782593,241.123428 926.065857,249.994919 908.003662,259.005859 
M891.573608,255.005325 
	C912.391052,244.623856 933.238831,234.302277 953.996643,223.802933 
	C957.526428,222.017609 960.948608,219.792419 963.940491,217.213593 
	C972.938904,209.457443 976.024353,196.810577 971.970825,185.793823 
	C967.781982,174.409363 957.235779,166.419327 945.125000,167.108887 
	C938.861389,167.465546 932.291260,169.401581 926.625549,172.183838 
	C884.382935,192.928024 842.327026,214.052597 800.223999,235.080795 
	C785.546326,242.411484 770.900940,249.806656 757.266357,256.657104 
	C760.667114,261.974121 763.841736,267.101501 767.184143,272.117126 
	C770.540771,277.154266 774.065002,282.079773 777.513855,287.055511 
	C777.608215,287.191620 777.722351,287.334106 777.756226,287.489105 
	C779.316650,294.631012 780.869019,301.774719 782.534424,309.433411 
	C818.129211,291.666473 854.517639,273.503448 891.573608,255.005325 
M749.001648,323.128418 
	C755.930237,320.904968 762.441895,318.863953 765.620117,310.764954 
	C768.826294,302.594757 767.053772,292.631439 760.315125,286.894104 
	C757.602295,284.584320 755.374451,281.000031 754.332458,277.568665 
	C751.531311,268.344604 743.864075,264.328491 735.115173,268.227783 
	C722.297607,273.940460 715.383179,287.527985 718.412109,301.051453 
	C721.473999,314.722229 733.692566,323.856781 749.001648,323.128418 
z"/>
<path fill="#F8FCF8" opacity="1.000000" stroke="none" 
	d="
M297.754913,293.733002 
	C313.752411,274.183624 329.462189,254.860794 345.283234,235.629456 
	C348.292389,231.971664 352.248871,231.998703 356.793457,235.497391 
	C363.504059,240.663589 370.091431,245.989792 376.735260,251.242813 
	C377.766876,252.058487 378.819611,252.847412 380.296265,253.981888 
	C399.885071,231.515503 419.369995,209.168289 438.854919,186.821060 
	C438.713226,186.485321 438.571564,186.149597 438.429871,185.813858 
	C436.318817,186.175476 434.215881,186.596558 432.095032,186.886734 
	C427.225433,187.553040 423.894867,185.672272 423.096100,181.880707 
	C422.312347,178.160660 424.492340,175.088776 429.253540,173.882095 
	C438.407501,171.562042 447.577911,169.279648 456.811310,167.308640 
	C464.496033,165.668228 468.074799,168.185608 469.074371,175.828217 
	C469.931854,182.384186 470.470764,188.992142 470.871918,195.594040 
	C471.160553,200.343933 468.229004,203.813812 464.282593,204.007874 
	C460.040070,204.216522 457.155029,200.996948 457.002350,195.788208 
	C456.930756,193.346542 456.990082,190.901047 456.990082,186.930084 
	C451.361084,193.214615 446.619476,198.394135 442.003296,203.683105 
	C426.599609,221.331726 411.244659,239.022873 395.861572,256.689453 
	C393.027527,259.944183 390.185730,263.193512 387.282593,266.386322 
	C383.308929,270.756531 380.276764,271.151398 375.621979,267.582275 
	C367.852509,261.624878 360.209808,255.502121 351.960052,249.013535 
	C347.632538,254.236023 343.313232,259.393158 339.053070,264.598694 
	C309.607513,300.578857 280.180237,336.573883 250.730042,372.550232 
	C246.737793,377.427124 242.731506,382.297089 238.581528,387.038788 
	C235.387512,390.688202 231.509171,391.295502 228.542252,388.926453 
	C225.245468,386.294067 225.060028,382.321808 228.313629,378.332062 
	C241.857208,361.724274 255.455566,345.161133 269.049072,328.594116 
	C278.521790,317.049286 288.019379,305.524841 297.754913,293.733002 
z"/>
<path fill="#F7FBF7" opacity="1.000000" stroke="none" 
	d="
M374.467285,359.458832 
	C396.663055,332.906250 418.651672,306.644440 440.628204,280.372528 
	C443.905579,276.454590 447.291199,275.853821 451.983856,278.603729 
	C455.413696,280.613647 458.756836,282.771301 462.145264,284.852264 
	C465.505249,286.915771 468.873566,288.965698 472.306305,291.063141 
	C494.531311,263.851624 516.586487,236.848022 539.424011,208.886551 
	C535.334045,209.475815 532.250061,209.817932 529.207458,210.382812 
	C524.804993,211.200180 521.583679,209.456589 520.401367,205.426590 
	C519.423767,202.094376 521.804688,198.126694 525.898865,197.329117 
	C535.749573,195.410156 545.630188,193.555130 555.574585,192.253113 
	C559.366394,191.756683 561.974915,194.395248 562.879944,198.356598 
	C564.354370,204.810699 565.917969,211.244797 567.487488,217.676712 
	C568.800598,223.058105 567.309387,226.769699 563.314270,227.877457 
	C559.265930,228.999969 556.064392,226.710403 554.419983,221.418427 
	C553.785767,219.377533 553.316040,217.285553 552.561157,214.418076 
	C546.477295,221.780792 540.679993,228.734787 534.949463,235.743362 
	C516.755249,257.995483 498.598145,280.277954 480.396362,302.523895 
	C476.839233,306.871338 473.472107,307.557831 468.633575,304.712921 
	C461.935333,300.774536 455.368469,296.612701 448.389771,292.328247 
	C440.846130,301.320618 433.493378,310.088379 426.137512,318.853455 
	C405.846130,343.032074 385.551849,367.208282 365.263641,391.389557 
	C363.131195,393.931183 361.003082,396.477448 358.922333,399.061310 
	C355.472321,403.345490 351.586823,404.422089 348.266968,401.956818 
	C344.780914,399.368073 344.600800,395.223724 348.304077,390.715210 
	C356.852417,380.308167 365.593384,370.059326 374.467285,359.458832 
z"/>
<path fill="#FCFDFC" opacity="1.000000" stroke="none" 
	d="
M431.969971,479.089355 
	C431.055847,470.364563 430.066681,462.105438 429.314850,453.824738 
	C428.760590,447.720581 431.234589,442.809631 435.973236,439.008698 
	C444.451996,432.207794 454.351257,428.527252 464.839539,426.498047 
	C477.500977,424.048340 490.312347,423.486145 502.758728,427.413300 
	C522.157104,433.533966 531.689941,448.040710 534.907471,467.305756 
	C536.726868,478.199066 537.115295,489.211334 533.545044,499.823639 
	C526.948425,519.431519 512.531372,529.991516 492.561523,532.877197 
	C485.287689,533.928223 477.734528,533.046326 469.634918,533.046326 
	C470.202301,539.229858 470.806335,546.102234 471.472107,552.968628 
	C471.936279,557.755432 472.605682,562.526428 472.911469,567.321777 
	C472.987946,568.521606 472.305817,570.602905 471.480682,570.896301 
	C464.387787,573.418457 457.112671,574.929077 449.521637,573.393677 
	C442.681549,572.010193 440.702606,566.686218 440.096954,560.902100 
	C437.258820,533.797791 434.672760,506.667084 431.969971,479.089355 
M465.125427,492.355011 
	C465.491211,495.996857 465.678680,499.670166 466.313232,503.264526 
	C466.556763,504.644073 467.519226,506.488403 468.666199,507.023682 
	C478.288422,511.514221 497.275208,509.449341 501.741058,493.571442 
	C503.435242,487.547791 503.231079,480.787598 502.861176,474.423065 
	C501.636139,453.346008 483.193787,443.436401 464.749359,453.816528 
	C463.339264,454.610077 461.938721,457.073425 462.050873,458.652954 
	C462.828278,469.599518 464.007690,480.517578 465.125427,492.355011 
z"/>
<path fill="#FBFDFB" opacity="1.000000" stroke="none" 
	d="
M731.068237,496.584900 
	C729.661316,483.656433 728.295410,471.136749 726.935608,458.616394 
	C726.327881,453.021301 725.674988,447.430359 725.142761,441.828033 
	C723.989258,429.686432 714.723633,425.624176 703.565369,427.241119 
	C701.812378,427.495148 700.117798,428.238251 698.431763,428.852814 
	C689.634338,432.059387 689.202820,433.047180 690.167908,442.182922 
	C692.225403,461.659973 694.078613,481.158600 696.014160,500.648529 
	C696.030579,500.813965 696.019958,500.981995 696.034485,501.147736 
	C696.771545,509.551575 696.831970,509.852844 688.745483,511.473755 
	C684.274902,512.369812 679.501221,512.633057 674.972473,512.155151 
	C668.054565,511.425171 664.768005,507.734985 664.053772,500.812378 
	C662.247681,483.308441 660.650330,465.783051 658.863831,448.277039 
	C656.702026,427.094360 654.414368,405.924561 652.225098,384.744659 
	C651.851929,381.134308 651.698303,377.501221 651.352173,372.584320 
	C658.275085,371.751038 665.259277,370.301788 672.256592,370.235016 
	C679.620728,370.164795 683.234619,374.269623 684.066956,381.727539 
	C685.041809,390.462830 685.959351,399.204498 686.968140,408.558105 
	C696.208374,403.684296 705.511414,401.088043 715.485779,401.055542 
	C740.373047,400.974457 754.764282,414.280609 757.060364,439.149536 
	C758.783325,457.810059 760.971619,476.427368 762.881531,495.071198 
	C763.117310,497.372864 762.913757,499.719513 762.913757,502.504883 
	C755.810791,505.456512 748.210632,506.689850 740.371460,505.635620 
	C735.470459,504.976562 732.467590,501.731689 731.068237,496.584900 
z"/>
<path fill="#FBFDFB" opacity="1.000000" stroke="none" 
	d="
M1034.679688,403.670990 
	C1028.178589,410.571320 1021.924927,417.220001 1015.315613,424.246704 
	C1024.666016,431.656189 1033.741455,438.853760 1042.824463,446.041626 
	C1045.433838,448.106628 1048.202637,449.993866 1050.647461,452.236176 
	C1053.036499,454.427338 1056.980835,455.400665 1056.264771,460.150665 
	C1055.414673,465.787903 1053.990723,470.977997 1048.803345,474.089386 
	C1042.301147,477.989258 1035.511230,478.010101 1029.019043,474.219940 
	C1025.609253,472.229370 1022.447876,469.673462 1019.552246,466.968384 
	C1010.666687,458.667633 1001.969421,450.165466 993.181885,441.759399 
	C992.146301,440.768707 991.005127,439.888336 989.299988,438.434052 
	C990.692566,452.583771 992.002991,465.899170 993.412720,480.223083 
	C986.727661,481.174225 980.425110,482.662689 974.088196,482.826965 
	C965.639038,483.045929 961.844543,479.596741 960.598450,471.236572 
	C959.422119,463.343933 958.861755,455.359192 958.041748,447.413788 
	C956.083862,428.443573 954.082581,409.477722 952.194519,390.500549 
	C950.651184,374.988251 949.246155,359.462189 947.687805,342.969452 
	C954.018127,341.979401 959.965210,340.536774 965.970825,340.227142 
	C975.582703,339.731476 980.002502,344.308655 980.907654,354.242401 
	C982.579773,372.593658 984.350220,390.936005 986.126831,409.277527 
	C986.269836,410.753845 986.775696,412.195007 987.289856,414.417206 
	C994.079285,406.078003 1000.543579,398.142700 1007.002563,390.203033 
	C1011.305664,384.913513 1015.592590,379.610718 1019.908447,374.331604 
	C1020.634094,373.443970 1021.322571,372.374725 1022.280823,371.854767 
	C1026.385620,369.627136 1037.635376,372.759949 1041.631104,377.110229 
	C1045.597778,381.428864 1046.352173,388.011841 1042.955444,393.245209 
	C1040.613403,396.853424 1037.625977,400.042786 1034.679688,403.670990 
z"/>
<path fill="#FBFDFB" opacity="1.000000" stroke="none" 
	d="
M325.571686,446.479889 
	C341.134766,437.122284 357.461975,434.640503 374.708344,438.819641 
	C388.907257,442.260376 399.481140,450.626648 406.041016,463.656250 
	C413.740906,478.950195 415.288849,495.023285 410.356262,511.444977 
	C404.026154,532.519348 386.003357,543.632507 365.596100,546.036255 
	C355.063843,547.276794 344.637512,546.854309 334.816101,542.663269 
	C315.184082,534.285950 306.393860,518.151184 304.128448,497.846924 
	C302.407990,482.426849 304.957703,467.916870 315.333069,455.718597 
	C318.208710,452.337738 321.934814,449.680206 325.571686,446.479889 
M377.150116,510.502930 
	C382.409241,497.762756 381.270813,485.197876 375.320496,473.141235 
	C371.468018,465.335266 364.631012,461.288696 355.791748,462.135193 
	C346.656311,463.009979 340.477264,468.112335 337.861633,477.019135 
	C334.789276,487.481201 335.968079,497.794250 339.926666,507.756622 
	C342.853485,515.122437 347.899750,520.345459 356.336792,521.128235 
	C365.174377,521.948120 372.386353,519.284058 377.150116,510.502930 
z"/>
<path fill="#FBFDFB" opacity="1.000000" stroke="none" 
	d="
M808.982422,391.948181 
	C824.139771,389.003632 838.705750,388.580719 852.742981,395.024750 
	C863.900513,400.146790 869.420593,409.442596 870.862244,421.161041 
	C872.805359,436.956055 874.007629,452.842743 875.986084,468.632660 
	C877.100769,477.528809 873.742188,483.681610 866.494385,488.329468 
	C857.393921,494.165436 847.275635,497.112701 836.747803,498.643036 
	C824.158020,500.473114 811.685608,500.649200 799.360291,496.201233 
	C780.851257,489.521698 776.803345,470.436798 781.090454,456.235718 
	C783.810852,447.224487 790.625854,441.630341 799.111267,439.004425 
	C810.795288,435.388733 822.851929,432.976776 834.750916,430.057037 
	C836.494446,429.629242 838.248779,429.245453 839.928406,428.857361 
	C840.043274,420.201691 836.505920,416.040314 828.224243,415.042938 
	C815.231750,413.478180 803.096680,416.676178 791.695007,422.530304 
	C787.723450,424.569458 785.634949,423.522949 783.431091,420.458923 
	C777.701660,412.493042 779.275696,403.344147 788.103333,399.021942 
	C794.529358,395.875580 801.708557,394.267639 808.982422,391.948181 
M812.548584,459.145386 
	C807.417419,464.971771 811.010376,474.168610 819.510010,475.638611 
	C827.660645,477.048279 835.632874,475.456085 843.074158,471.808929 
	C843.954895,471.377258 844.846924,469.751709 844.761292,468.763947 
	C844.235657,462.703217 843.430054,456.666748 842.553406,449.227875 
	C832.446411,452.449799 822.768921,455.534851 812.548584,459.145386 
z"/>
<path fill="#FCFDFC" opacity="1.000000" stroke="none" 
	d="
M193.746780,455.826538 
	C191.464371,455.964478 189.621048,455.954926 187.810852,456.195038 
	C181.000534,457.098541 180.176575,456.897308 178.292282,450.435333 
	C177.245132,446.844208 176.911682,442.892792 177.072174,439.138611 
	C177.294495,433.938232 181.005173,430.599396 186.532196,430.017120 
	C200.044861,428.593475 213.570755,427.295898 227.088898,425.923676 
	C243.588669,424.248779 260.101288,422.681091 276.572876,420.762634 
	C280.399811,420.316925 282.474274,421.748718 283.140900,424.989685 
	C284.094635,429.626556 285.092804,434.412079 284.892426,439.083557 
	C284.697449,443.630463 281.299438,446.472443 276.698212,447.063660 
	C267.492950,448.246368 258.260010,449.214111 248.398758,450.343872 
	C251.824875,484.603729 255.238205,518.735779 258.788757,554.239990 
	C251.282639,555.119446 243.972229,556.634521 236.660522,556.640808 
	C229.839188,556.646667 225.901215,552.279053 225.069870,545.187073 
	C223.560028,532.306946 222.364883,519.389771 221.054703,506.486389 
	C219.281509,489.022980 217.523682,471.558044 215.700241,453.509583 
	C208.325256,454.293121 201.263168,455.043396 193.746780,455.826538 
z"/>
<path fill="#FBFDFB" opacity="1.000000" stroke="none" 
	d="
M636.819458,489.087585 
	C646.237244,496.914612 645.870728,507.131958 636.137146,513.806213 
	C627.084106,520.013794 616.624695,521.205933 606.094910,521.403442 
	C589.300720,521.718323 573.435242,518.067444 562.940796,503.930115 
	C548.489990,484.462952 546.264404,462.607697 556.243347,440.598206 
	C563.758423,424.023071 578.676453,416.242645 596.037903,413.068115 
	C605.610962,411.317657 615.232178,410.923126 624.432800,415.026642 
	C634.277161,419.417358 637.513306,427.734436 632.981323,436.390228 
	C631.391663,439.426300 629.754700,440.665771 625.954895,439.263458 
	C617.472778,436.133057 608.715942,435.742126 600.077576,439.010864 
	C588.364990,443.442810 582.089600,453.661652 583.078308,468.030975 
	C583.987305,481.243439 588.954590,493.509552 608.001465,495.620483 
	C616.237915,496.533325 624.037964,494.084381 631.299561,489.966522 
	C632.768494,489.133545 634.760742,489.223419 636.819458,489.087585 
z"/>
<path fill="#FBFDFB" opacity="1.000000" stroke="none" 
	d="
M929.910400,486.945557 
	C925.893188,487.608490 922.314270,488.539642 918.690552,488.773041 
	C907.955566,489.464386 903.095093,485.075775 902.023621,474.383575 
	C898.776367,441.977936 895.442993,409.580902 892.198486,377.175018 
	C891.290710,368.107574 890.574219,359.020966 889.640381,348.479828 
	C897.262329,347.680298 904.569519,346.181641 911.835815,346.358795 
	C919.009521,346.533661 922.045105,351.454559 922.989258,360.945587 
	C926.213196,393.353882 929.504944,425.755432 932.761414,458.160492 
	C933.508423,465.593628 934.069885,473.049164 935.004761,480.458099 
	C935.495544,484.347046 934.096252,486.352417 929.910400,486.945557 
z"/>
<path fill="#3F8741" opacity="1.000000" stroke="none" 
	d="
M602.074036,472.547272 
	C601.914917,471.656555 601.847839,471.160095 601.719543,470.679962 
	C598.686096,459.325775 605.077148,452.694031 616.586487,455.324005 
	C619.972290,456.097687 623.267456,457.345032 626.681641,457.891571 
	C629.100403,458.278809 631.707581,458.160309 634.123596,457.702454 
	C636.503723,457.251465 638.748901,456.088715 641.598633,455.036987 
	C641.822632,457.980072 642.010132,460.549927 642.216125,463.118317 
	C642.410217,465.537048 642.623840,467.954224 642.887573,471.064606 
	C640.831665,470.702667 639.046448,469.913940 637.452576,470.198212 
	C632.970093,470.997620 628.500183,472.024750 624.152283,473.372070 
	C620.547424,474.489136 617.224182,476.568115 613.593567,477.535950 
	C608.878357,478.792877 604.689941,477.635742 602.074036,472.547272 
z"/>
<path fill="#FCFDFC" opacity="1.000000" stroke="none" 
	d="
M891.239807,255.172882 
	C854.517639,273.503448 818.129211,291.666473 782.534424,309.433411 
	C780.869019,301.774719 779.316650,294.631012 777.756226,287.489105 
	C777.722351,287.334106 777.608215,287.191620 777.513855,287.055511 
	C774.065002,282.079773 770.540771,277.154266 767.184143,272.117126 
	C763.841736,267.101501 760.667114,261.974121 757.266357,256.657104 
	C770.900940,249.806656 785.546326,242.411484 800.223999,235.080795 
	C842.327026,214.052597 884.382935,192.928024 926.625549,172.183838 
	C932.291260,169.401581 938.861389,167.465546 945.125000,167.108887 
	C957.235779,166.419327 967.781982,174.409363 971.970825,185.793823 
	C976.024353,196.810577 972.938904,209.457443 963.940491,217.213593 
	C960.948608,219.792419 957.526428,222.017609 953.996643,223.802933 
	C933.238831,234.302277 912.391052,244.623856 891.239807,255.172882 
z"/>
<path fill="#FAFCFA" opacity="1.000000" stroke="none" 
	d="
M748.564087,323.197144 
	C733.692566,323.856781 721.473999,314.722229 718.412109,301.051453 
	C715.383179,287.527985 722.297607,273.940460 735.115173,268.227783 
	C743.864075,264.328491 751.531311,268.344604 754.332458,277.568665 
	C755.374451,281.000031 757.602295,284.584320 760.315125,286.894104 
	C767.053772,292.631439 768.826294,302.594757 765.620117,310.764954 
	C762.441895,318.863953 755.930237,320.904968 748.564087,323.197144 
z"/>
<path fill="#194C1A" opacity="1.000000" stroke="none" 
	d="
M465.091797,491.899902 
	C464.007690,480.517578 462.828278,469.599518 462.050873,458.652954 
	C461.938721,457.073425 463.339264,454.610077 464.749359,453.816528 
	C483.193787,443.436401 501.636139,453.346008 502.861176,474.423065 
	C503.231079,480.787598 503.435242,487.547791 501.741058,493.571442 
	C497.275208,509.449341 478.288422,511.514221 468.666199,507.023682 
	C467.519226,506.488403 466.556763,504.644073 466.313232,503.264526 
	C465.678680,499.670166 465.491211,495.996857 465.091797,491.899902 
M485.221985,477.328430 
	C484.426392,474.352142 483.630829,471.375885 482.835266,468.399597 
	C482.193359,468.551147 481.551483,468.702698 480.909576,468.854248 
	C481.646423,475.650421 482.383301,482.446594 483.120148,489.242767 
	C483.755219,489.258636 484.390320,489.274475 485.025391,489.290314 
	C485.192657,485.569244 485.359894,481.848145 485.221985,477.328430 
z"/>
<path fill="#194C1A" opacity="1.000000" stroke="none" 
	d="
M377.084045,510.879028 
	C372.386353,519.284058 365.174377,521.948120 356.336792,521.128235 
	C347.899750,520.345459 342.853485,515.122437 339.926666,507.756622 
	C335.968079,497.794250 334.789276,487.481201 337.861633,477.019135 
	C340.477264,468.112335 346.656311,463.009979 355.791748,462.135193 
	C364.631012,461.288696 371.468018,465.335266 375.320496,473.141235 
	C381.270813,485.197876 382.409241,497.762756 377.084045,510.879028 
M362.007629,492.217773 
	C361.333710,488.846008 360.797729,485.436371 359.889404,482.128967 
	C359.660706,481.296295 358.217163,480.254913 357.373199,480.290436 
	C356.573273,480.324066 355.433380,481.509094 355.121063,482.420258 
	C352.900452,488.898163 354.514893,495.138855 356.773224,501.236969 
	C357.069702,502.037598 358.552063,502.926971 359.400330,502.849274 
	C360.277313,502.768982 361.645233,501.643066 361.759491,500.828796 
	C362.117523,498.277527 361.985870,495.657532 362.007629,492.217773 
z"/>
<path fill="#1B4C1C" opacity="1.000000" stroke="none" 
	d="
M812.820007,458.882629 
	C822.768921,455.534851 832.446411,452.449799 842.553406,449.227875 
	C843.430054,456.666748 844.235657,462.703217 844.761292,468.763947 
	C844.846924,469.751709 843.954895,471.377258 843.074158,471.808929 
	C835.632874,475.456085 827.660645,477.048279 819.510010,475.638611 
	C811.010376,474.168610 807.417419,464.971771 812.820007,458.882629 
z"/>
<path fill="#408242" opacity="1.000000" stroke="none" 
	d="
M485.374573,477.727722 
	C485.359894,481.848145 485.192657,485.569244 485.025391,489.290314 
	C484.390320,489.274475 483.755219,489.258636 483.120148,489.242767 
	C482.383301,482.446594 481.646423,475.650421 480.909576,468.854248 
	C481.551483,468.702698 482.193359,468.551147 482.835266,468.399597 
	C483.630829,471.375885 484.426392,474.352142 485.374573,477.727722 
z"/>
<path fill="#3F8541" opacity="1.000000" stroke="none" 
	d="
M362.025787,492.640991 
	C361.985870,495.657532 362.117523,498.277527 361.759491,500.828796 
	C361.645233,501.643066 360.277313,502.768982 359.400330,502.849274 
	C358.552063,502.926971 357.069702,502.037598 356.773224,501.236969 
	C354.514893,495.138855 352.900452,488.898163 355.121063,482.420258 
	C355.433380,481.509094 356.573273,480.324066 357.373199,480.290436 
	C358.217163,480.254913 359.660706,481.296295 359.889404,482.128967 
	C360.797729,485.436371 361.333710,488.846008 362.025787,492.640991 
z"/>
</svg>